<!--?xml version="1.0" standalone="no"?-->
              <svg id="sw-js-blob-svg" viewBox="0 0 100 100" xmlns="http://www.w3.org/2000/svg" version="1.1">
                    <defs> 
                        <linearGradient id="sw-gradient" x1="0" x2="1" y1="1" y2="0">
                            <stop id="stop1" stop-color="rgba(4.237, 245.075, 200.204, 0.19)" offset="0%"></stop>
                            <stop id="stop2" stop-color="rgba(251, 168, 31, 0.63)" offset="100%"></stop>
                        </linearGradient>
                    </defs>
                <path fill="url(#sw-gradient)" d="M20.9,-24.8C24.4,-21.9,22.9,-12.8,24.3,-4.3C25.8,4.2,30.3,12.1,29.1,19.3C28,26.5,21.1,32.9,13,36.1C4.8,39.3,-4.8,39.3,-14.4,36.9C-23.9,34.5,-33.6,29.7,-37.3,22.1C-41,14.5,-38.8,4,-35.7,-5C-32.6,-14,-28.6,-21.6,-22.5,-24.1C-16.4,-26.5,-8.2,-23.7,0.2,-24C8.7,-24.3,17.3,-27.6,20.9,-24.8Z" width="100%" height="100%" transform="translate(50 50)" stroke-width="0" style="transition: all 0.3s ease 0s;"></path>
              </svg>